REM DIRINDEX 1\5,1\2\6,1\2\7,1\3\8,1\3\9,1\4\10,1\4\11,1\4\12
REM DIRNAME cjc026,folder01,folder02,folder03,folder04,folder05,folder06,folder07,folder08,folder09,folder10,folder11
TITLE ""
FILE "EJ_DB3000_5th_4B_37.mp3" MP3
  TRACK 01 AUDIO
    TITLE "0:"
    INDEX 01 00:00:00
  TRACK 02 AUDIO
    TITLE "9:cjc026_05243"
    INDEX 01 00:00:08
  TRACK 03 AUDIO
    TITLE "0:"
    INDEX 01 00:01:30
  TRACK 04 AUDIO
    TITLE "8:cjc026_05244"
    INDEX 01 00:01:70
  TRACK 05 AUDIO
    TITLE "0:"
    INDEX 01 00:03:15
  TRACK 06 AUDIO
    TITLE "9:cjc026_05245"
    INDEX 01 00:03:50
  TRACK 07 AUDIO
    TITLE "0:"
    INDEX 01 00:04:67
  TRACK 08 AUDIO
    TITLE "8:cjc026_05246"
    INDEX 01 00:05:30
  TRACK 09 AUDIO
    TITLE "0:"
    INDEX 01 00:06:57
  TRACK 10 AUDIO
    TITLE "9:cjc026_05247"
    INDEX 01 00:07:20
  TRACK 11 AUDIO
    TITLE "0:"
    INDEX 01 00:08:45
  TRACK 12 AUDIO
    TITLE "8:cjc026_05248"
    INDEX 01 00:09:05
  TRACK 13 AUDIO
    TITLE "0:"
    INDEX 01 00:10:30
  TRACK 14 AUDIO
    TITLE "9:cjc026_05249"
    INDEX 01 00:10:65
  TRACK 15 AUDIO
    TITLE "0:"
    INDEX 01 00:12:26
  TRACK 16 AUDIO
    TITLE "8:cjc026_05250"
    INDEX 01 00:12:61
  TRACK 17 AUDIO
    TITLE "0:"
    INDEX 01 00:14:30
  TRACK 18 AUDIO
    TITLE "9:cjc026_05251"
    INDEX 01 00:14:62
  TRACK 19 AUDIO
    TITLE "0:"
    INDEX 01 00:16:23
  TRACK 20 AUDIO
    TITLE "8:cjc026_05252"
    INDEX 01 00:16:55
  TRACK 21 AUDIO
    TITLE "0:"
    INDEX 01 00:18:10
  TRACK 22 AUDIO
    TITLE "9:cjc026_05253"
    INDEX 01 00:18:51
  TRACK 23 AUDIO
    TITLE "0:"
    INDEX 01 00:21:31
  TRACK 24 AUDIO
    TITLE "8:cjc026_05254"
    INDEX 01 00:21:66
  TRACK 25 AUDIO
    TITLE "0:"
    INDEX 01 00:23:32
  TRACK 26 AUDIO
    TITLE "9:cjc026_05255"
    INDEX 01 00:23:65
  TRACK 27 AUDIO
    TITLE "0:"
    INDEX 01 00:25:20
  TRACK 28 AUDIO
    TITLE "8:cjc026_05256"
    INDEX 01 00:25:55
  TRACK 29 AUDIO
    TITLE "0:"
    INDEX 01 00:27:35
  TRACK 30 AUDIO
    TITLE "9:cjc026_05257"
    INDEX 01 00:27:72
  TRACK 31 AUDIO
    TITLE "0:"
    INDEX 01 00:29:22
  TRACK 32 AUDIO
    TITLE "8:cjc026_05258"
    INDEX 01 00:29:57
  TRACK 33 AUDIO
    TITLE "0:"
    INDEX 01 00:31:24
  TRACK 34 AUDIO
    TITLE "9:cjc026_05259"
    INDEX 01 00:31:61
  TRACK 35 AUDIO
    TITLE "0:"
    INDEX 01 00:33:22
  TRACK 36 AUDIO
    TITLE "8:cjc026_05260"
    INDEX 01 00:33:60
  TRACK 37 AUDIO
    TITLE "0:"
    INDEX 01 00:35:26
  TRACK 38 AUDIO
    TITLE "9:cjc026_05261"
    INDEX 01 00:35:61
  TRACK 39 AUDIO
    TITLE "0:"
    INDEX 01 00:37:22
  TRACK 40 AUDIO
    TITLE "8:cjc026_05262"
    INDEX 01 00:37:57
  TRACK 41 AUDIO
    TITLE "0:"
    INDEX 01 00:39:04
  TRACK 42 AUDIO
    TITLE "9:cjc026_05263"
    INDEX 01 00:39:42
  TRACK 43 AUDIO
    TITLE "0:"
    INDEX 01 00:40:61
  TRACK 44 AUDIO
    TITLE "8:cjc026_05264"
    INDEX 01 00:41:19
  TRACK 45 AUDIO
    TITLE "0:"
    INDEX 01 00:42:41
  TRACK 46 AUDIO
    TITLE "9:cjc026_05265"
    INDEX 01 00:42:73
  TRACK 47 AUDIO
    TITLE "0:"
    INDEX 01 00:44:29
  TRACK 48 AUDIO
    TITLE "8:cjc026_05266"
    INDEX 01 00:44:64
  TRACK 49 AUDIO
    TITLE "0:"
    INDEX 01 00:46:30
  TRACK 50 AUDIO
    TITLE "9:cjc026_05267"
    INDEX 01 00:46:65
  TRACK 51 AUDIO
    TITLE "0:"
    INDEX 01 00:48:18
  TRACK 52 AUDIO
    TITLE "8:cjc026_05268"
    INDEX 01 00:48:53
  TRACK 53 AUDIO
    TITLE "0:"
    INDEX 01 00:51:30
  TRACK 54 AUDIO
    TITLE "9:cjc026_05269"
    INDEX 01 00:51:65
  TRACK 55 AUDIO
    TITLE "0:"
    INDEX 01 00:53:18
  TRACK 56 AUDIO
    TITLE "8:cjc026_05270"
    INDEX 01 00:53:56
  TRACK 57 AUDIO
    TITLE "0:"
    INDEX 01 00:56:57
  TRACK 58 AUDIO
    TITLE "9:cjc026_05271"
    INDEX 01 00:57:18
  TRACK 59 AUDIO
    TITLE "0:"
    INDEX 01 00:58:45
  TRACK 60 AUDIO
    TITLE "8:cjc026_05272"
    INDEX 01 00:59:05
  TRACK 61 AUDIO
    TITLE "0:"
    INDEX 01 01:00:54
